<?xml version="1.0" encoding="UTF-8" standalone="no"?>
<!-- Created with Inkscape (http://www.inkscape.org/) -->

<svg
   xmlns:dc="http://purl.org/dc/elements/1.1/"
   xmlns:cc="http://creativecommons.org/ns#"
   xmlns:rdf="http://www.w3.org/1999/02/22-rdf-syntax-ns#"
   xmlns:svg="http://www.w3.org/2000/svg"
   xmlns="http://www.w3.org/2000/svg"
   xmlns:sodipodi="http://sodipodi.sourceforge.net/DTD/sodipodi-0.dtd"
   xmlns:inkscape="http://www.inkscape.org/namespaces/inkscape"
   width="5"
   height="4.9971323"
   id="svg2"
   version="1.1"
   inkscape:version="0.48.3.1 r9886"
   sodipodi:docname="background.svg">
  <defs
     id="defs4" />
  <sodipodi:namedview
     id="base"
     pagecolor="#ffffff"
     bordercolor="#666666"
     borderopacity="1.0"
     inkscape:pageopacity="0.0"
     inkscape:pageshadow="2"
     inkscape:zoom="31.678384"
     inkscape:cx="11.128302"
     inkscape:cy="2.8031356"
     inkscape:document-units="px"
     inkscape:current-layer="layer1"
     showgrid="false"
     fit-margin-top="0"
     fit-margin-left="0"
     fit-margin-right="0"
     fit-margin-bottom="0"
     inkscape:window-width="1366"
     inkscape:window-height="748"
     inkscape:window-x="-2"
     inkscape:window-y="-3"
     inkscape:window-maximized="1"
     inkscape:snap-bbox="true"
     inkscape:snap-center="true">
    <inkscape:grid
       type="xygrid"
       id="grid2985"
       empspacing="5"
       visible="true"
       enabled="true"
       snapvisiblegridlinesonly="true"
       originx="-205px"
       originy="-895.00287px" />
  </sodipodi:namedview>
  <metadata
     id="metadata7">
    <rdf:RDF>
      <cc:Work
         rdf:about="">
        <dc:format>image/svg+xml</dc:format>
        <dc:type
           rdf:resource="http://purl.org/dc/dcmitype/StillImage" />
        <dc:title />
      </cc:Work>
    </rdf:RDF>
  </metadata>
  <g
     inkscape:label="Layer 1"
     inkscape:groupmode="layer"
     id="layer1"
     transform="translate(-205,-152.36218)">
    <rect
       style="fill:#cccccc;fill-opacity:1;stroke:none"
       id="rect2987"
       width="5"
       height="4.9971323"
       x="205"
       y="152.36218"
       rx="0"
       ry="0"
       inkscape:export-xdpi="90"
       inkscape:export-ydpi="90" />
    <path
       sodipodi:type="arc"
       style="fill:#de8787;fill-opacity:1;stroke:none"
       id="path2989-9-7"
       sodipodi:cx="132.5"
       sodipodi:cy="114.86218"
       sodipodi:rx="12.5"
       sodipodi:ry="12.5"
       d="m 145,114.86218 a 12.5,12.5 0 1 1 -25,0 12.5,12.5 0 1 1 25,0 z"
       transform="matrix(0.176,0,0,0.176,181.68,132.14644)" />
    <path
       sodipodi:type="arc"
       style="fill:#999999;fill-opacity:1;stroke:none"
       id="path2989-9"
       sodipodi:cx="132.5"
       sodipodi:cy="114.86218"
       sodipodi:rx="12.5"
       sodipodi:ry="12.5"
       d="m 145,114.86218 a 12.5,12.5 0 1 1 -25,0 12.5,12.5 0 1 1 25,0 z"
       transform="matrix(0.16,0,0,0.16,183.8,133.98423)" />
    <path
       sodipodi:type="arc"
       style="fill:#de8787;fill-opacity:1;stroke:none"
       id="path2989-9-7-9"
       sodipodi:cx="132.5"
       sodipodi:cy="114.86218"
       sodipodi:rx="12.5"
       sodipodi:ry="12.5"
       d="m 145,114.86218 a 12.5,12.5 0 1 1 -25,0 12.5,12.5 0 1 1 25,0 z"
       transform="matrix(0.176,0,0,0.176,186.68,132.14644)" />
    <path
       sodipodi:type="arc"
       style="fill:#999999;fill-opacity:1;stroke:none"
       id="path2989-9-0"
       sodipodi:cx="132.5"
       sodipodi:cy="114.86218"
       sodipodi:rx="12.5"
       sodipodi:ry="12.5"
       d="m 145,114.86218 a 12.5,12.5 0 1 1 -25,0 12.5,12.5 0 1 1 25,0 z"
       transform="matrix(0.16,0,0,0.16,188.8,133.98423)" />
    <path
       sodipodi:type="arc"
       style="fill:#de8787;fill-opacity:1;stroke:none"
       id="path2989-9-7-5"
       sodipodi:cx="132.5"
       sodipodi:cy="114.86218"
       sodipodi:rx="12.5"
       sodipodi:ry="12.5"
       d="m 145,114.86218 a 12.5,12.5 0 1 1 -25,0 12.5,12.5 0 1 1 25,0 z"
       transform="matrix(0.176,0,0,0.176,186.68,137.14644)" />
    <path
       sodipodi:type="arc"
       style="fill:#999999;fill-opacity:1;stroke:none"
       id="path2989-9-9"
       sodipodi:cx="132.5"
       sodipodi:cy="114.86218"
       sodipodi:rx="12.5"
       sodipodi:ry="12.5"
       d="m 145,114.86218 a 12.5,12.5 0 1 1 -25,0 12.5,12.5 0 1 1 25,0 z"
       transform="matrix(0.16,0,0,0.16,188.8,138.98423)" />
    <path
       sodipodi:type="arc"
       style="fill:#de8787;fill-opacity:1;stroke:none"
       id="path2989-9-7-4"
       sodipodi:cx="132.5"
       sodipodi:cy="114.86218"
       sodipodi:rx="12.5"
       sodipodi:ry="12.5"
       d="m 145,114.86218 a 12.5,12.5 0 1 1 -25,0 12.5,12.5 0 1 1 25,0 z"
       transform="matrix(0.176,0,0,0.176,181.68,137.14644)" />
    <path
       sodipodi:type="arc"
       style="fill:#999999;fill-opacity:1;stroke:none"
       id="path2989-9-3"
       sodipodi:cx="132.5"
       sodipodi:cy="114.86218"
       sodipodi:rx="12.5"
       sodipodi:ry="12.5"
       d="m 145,114.86218 a 12.5,12.5 0 1 1 -25,0 12.5,12.5 0 1 1 25,0 z"
       transform="matrix(0.16,0,0,0.16,183.8,138.98423)" />
  </g>
</svg>
